<mxfile host="Electron" modified="2023-09-18T20:40:17.444Z" agent="Mozilla/5.0 (Windows NT 10.0; Win64; x64) AppleWebKit/537.36 (KHTML, like Gecko) draw.io/21.7.5 Chrome/114.0.5735.289 Electron/25.8.1 Safari/537.36" etag="VJrANP5YfB83chCe7wfP" version="21.7.5" type="device">
  <diagram name="Page-1" id="HAakQ6Pj620qyvjRwoKp">
    <mxGraphModel dx="864" dy="516" grid="1" gridSize="10" guides="1" tooltips="1" connect="1" arrows="1" fold="1" page="1" pageScale="1" pageWidth="850" pageHeight="1100" math="0" shadow="0">
      <root>
        <mxCell id="0" />
        <mxCell id="1" parent="0" />
        <mxCell id="7sfniu3rV8QgPWGTxk1b-3" value="" style="edgeStyle=orthogonalEdgeStyle;rounded=0;orthogonalLoop=1;jettySize=auto;html=1;" parent="1" source="7sfniu3rV8QgPWGTxk1b-1" target="7sfniu3rV8QgPWGTxk1b-2" edge="1">
          <mxGeometry relative="1" as="geometry" />
        </mxCell>
        <mxCell id="7sfniu3rV8QgPWGTxk1b-1" value="&lt;font style=&quot;font-size: 14px;&quot;&gt;Start&lt;/font&gt;" style="ellipse;whiteSpace=wrap;html=1;" parent="1" vertex="1">
          <mxGeometry x="320" y="50" width="160" height="70" as="geometry" />
        </mxCell>
        <mxCell id="7sfniu3rV8QgPWGTxk1b-5" value="" style="edgeStyle=orthogonalEdgeStyle;rounded=0;orthogonalLoop=1;jettySize=auto;html=1;" parent="1" source="7sfniu3rV8QgPWGTxk1b-2" target="7sfniu3rV8QgPWGTxk1b-4" edge="1">
          <mxGeometry relative="1" as="geometry" />
        </mxCell>
        <mxCell id="7sfniu3rV8QgPWGTxk1b-2" value="&lt;font style=&quot;font-size: 14px;&quot;&gt;read: b&lt;/font&gt;" style="shape=parallelogram;perimeter=parallelogramPerimeter;whiteSpace=wrap;html=1;fixedSize=1;" parent="1" vertex="1">
          <mxGeometry x="320" y="170" width="160" height="60" as="geometry" />
        </mxCell>
        <mxCell id="7sfniu3rV8QgPWGTxk1b-7" value="" style="edgeStyle=orthogonalEdgeStyle;rounded=0;orthogonalLoop=1;jettySize=auto;html=1;" parent="1" source="7sfniu3rV8QgPWGTxk1b-4" target="7sfniu3rV8QgPWGTxk1b-6" edge="1">
          <mxGeometry relative="1" as="geometry" />
        </mxCell>
        <mxCell id="7sfniu3rV8QgPWGTxk1b-4" value="&lt;font style=&quot;font-size: 14px;&quot;&gt;read: h&lt;/font&gt;" style="shape=parallelogram;perimeter=parallelogramPerimeter;whiteSpace=wrap;html=1;fixedSize=1;" parent="1" vertex="1">
          <mxGeometry x="320" y="280" width="160" height="60" as="geometry" />
        </mxCell>
        <mxCell id="7sfniu3rV8QgPWGTxk1b-9" value="" style="edgeStyle=orthogonalEdgeStyle;rounded=0;orthogonalLoop=1;jettySize=auto;html=1;" parent="1" source="7sfniu3rV8QgPWGTxk1b-6" edge="1">
          <mxGeometry relative="1" as="geometry">
            <mxPoint x="400" y="540" as="targetPoint" />
          </mxGeometry>
        </mxCell>
        <mxCell id="7sfniu3rV8QgPWGTxk1b-6" value="&lt;font style=&quot;font-size: 14px;&quot;&gt;A = b * h&lt;/font&gt;" style="whiteSpace=wrap;html=1;" parent="1" vertex="1">
          <mxGeometry x="320" y="410" width="160" height="60" as="geometry" />
        </mxCell>
        <mxCell id="7sfniu3rV8QgPWGTxk1b-10" value="&lt;font style=&quot;font-size: 14px;&quot;&gt;End&lt;/font&gt;" style="ellipse;whiteSpace=wrap;html=1;" parent="1" vertex="1">
          <mxGeometry x="320" y="650" width="160" height="70" as="geometry" />
        </mxCell>
        <mxCell id="7sfniu3rV8QgPWGTxk1b-13" value="" style="edgeStyle=orthogonalEdgeStyle;rounded=0;orthogonalLoop=1;jettySize=auto;html=1;" parent="1" source="7sfniu3rV8QgPWGTxk1b-12" target="7sfniu3rV8QgPWGTxk1b-10" edge="1">
          <mxGeometry relative="1" as="geometry" />
        </mxCell>
        <mxCell id="7sfniu3rV8QgPWGTxk1b-12" value="&lt;font style=&quot;font-size: 14px;&quot;&gt;display: A&lt;/font&gt;" style="shape=parallelogram;perimeter=parallelogramPerimeter;whiteSpace=wrap;html=1;fixedSize=1;" parent="1" vertex="1">
          <mxGeometry x="320" y="540" width="160" height="60" as="geometry" />
        </mxCell>
      </root>
    </mxGraphModel>
  </diagram>
</mxfile>
